<svg version="1.0" xmlns="http://www.w3.org/2000/svg"
 width="360.000000pt" height="287.000000pt" viewBox="0 0 360.000000 287.000000"
 preserveAspectRatio="xMidYMid meet">

<g transform="translate(0.000000,287.000000) scale(0.100000,-0.100000)"
fill="#000000" stroke="none">
<path d="M1755 2859 c-196 -20 -425 -88 -610 -182 -356 -179 -637 -488 -749
-825 -34 -100 -34 -114 1 -110 23 3 31 14 62 93 190 472 644 801 1231 891 146
22 395 22 542 0 635 -93 1133 -489 1274 -1011 25 -91 27 -116 27 -275 0 -159
-2 -184 -27 -275 -81 -298 -274 -555 -558 -742 -480 -317 -1122 -377 -1673
-156 -210 84 -373 191 -525 343 -150 150 -219 259 -320 507 -11 26 -48 31 -56
8 -8 -19 29 -131 76 -230 195 -413 608 -725 1106 -839 704 -160 1452 113 1820
665 249 374 291 830 112 1237 -126 288 -400 568 -707 721 -302 152 -673 217
-1026 180z"/>
<path d="M2295 2453 c-247 -39 -491 -179 -646 -371 -71 -89 -169 -270 -169
-315 0 -22 5 -27 25 -27 22 0 31 11 62 76 63 134 154 243 278 336 180 135 371
198 600 198 445 0 817 -272 936 -685 20 -67 23 -103 23 -225 0 -123 -3 -157
-23 -225 -94 -323 -326 -549 -667 -651 -110 -32 -315 -44 -428 -24 -319 56
-581 245 -714 515 -36 73 -46 85 -67 85 -38 0 -32 -37 21 -147 132 -270 364a
-460 664 -544 74 -21 106 -24 255 -24 204 0 278 17 450 100 529 257 732 908
441 1418 -110 192 -255 326 -459 422 -143 68 -226 86 -402 90 -82 2 -163 1
-180 -2z"/>
<path d="M1761 1708 c-35 -18 -63 -61 -70 -105 -4 -25 -14 -41 -29 -49 -30
-15 -30 -28 0 -34 22 -6 23 -11 26 -110 4 -131 0 -148 -35 -152 -14 -2 -28 -8
-30 -14 -2 -7 34 -9 109 -8 62 1 115 3 118 3 13 3 -27 21 -47 21 -35 0 -44 31
-41 147 l3 108 53 3 c37 2 52 7 52 18 0 10 -14 14 -56 14 l-57 0 7 56 c3 31
11 65 17 76 15 27 51 19 67 -15 10 -20 20 -27 35 -25 18 2 22 10 22 38 l0 35
-60 3 c-34 1 -70 -3 -84 -10z"/>
<path d="M2393 1707 c-55 -16 -61 -24 -24 -32 l31 -7 -2 -201 -3 -202 -30 -5
c-64 -11 -20 -24 80 -25 67 0 104 3 102 10 -2 5 -17 12 -33 15 l-29 5 -3 228
-2 227 -23 -1 c-12 -1 -41 -6 -64 -12z"/>
<path d="M0 1661 c0 -6 9 -11 19 -11 51 0 51 1 51 -200 l0 -189 -32 -3 c-18
-2 -33 -7 -33 -13 0 -13 229 -13 233 0 1 6 -14 12 -35 15 l-38 5 -3 81 -3 82
98 4 c145 6 203 41 203 120 0 36 -29 71 -80 99 -33 18 -380 27 -380 10z m284
-22 c112 -31 116 -147 5 -179 -38 -11 -90 -13 -113 -4 -13 5 -16 23 -16 94 0
61 4 90 13 93 21 9 71 7 111 -4z"/>
<path d="M2667 1635 c-20 -14 -37 -28 -37 -30 0 -3 20 -5 44 -5 48 0 79 20 70
45 -9 22 -34 18 -77 -10z"/>
<path d="M1351 1585 l-53 -52 31 -6 31 -6 0 -129 c0 -153 5 -162 89 -162 43 0
56 4 76 26 14 15 25 31 25 35 0 13 -28 11 -35 -2 -4 -5 -18 -15 -32 -20 -46
-17 -53 1 -53 132 l0 119 50 0 c37 0 50 4 50 14 0 11 -14 16 -47 18 l-48 3 -3
43 c-2 25 -8 41 -15 40 -7 0 -36 -25 -66 -53z"/>
<path d="M603 1544 c-23 -9 -58 -33 -77 -55 -32 -34 -36 -45 -36 -92 0 -99 66
-157 188 -165 52 -4 70 0 115 22 64 32 89 65 95 126 12 130 -138 216 -285 164z
m161 -40 c75 -75 49 -217 -44 -245 -34 -10 -46 -10 -75 4 -83 40 -102 169 -34
237 26 25 38 30 78 30 39 0 53 -5 75 -26z"/>
<path d="M1035 1551 c-3 -6 -24 -15 -45 -21 -44 -12 -52 -27 -17 -32 21 -3 22
-7 25 -120 l3 -117 -28 -3 c-15 -2 -27 -7 -26 -12 4 -12 202 -16 209 -5 3 5
-8 11 -23 15 -15 3 -34 7 -40 10 -9 2 -13 32 -13 104 0 94 2 103 25 125 30 31
38 31 50 3 8 -18 18 -23 45 -23 32 0 35 3 38 32 3 27 -1 35 -22 44 -34 16 -88
3 -117 -27 l-24 -26 -5 28 c-5 29 -24 42 -35 25z"/>
<path d="M2025 1549 c-130 -48 -166 -180 -73 -266 76 -71 227 -70 303 2 82 77
58 197 -49 252 -38 20 -142 26 -181 12z m144 -35 c53 -37 68 -146 28 -205 -61
-91 -177 -69 -207 40 -15 58 -3 110 36 149 26 26 40 32 76 32 24 0 54 -7 67
-16z"/>
<path d="M2662 1541 c-57 -18 -67 -33 -30 -41 22 -6 23 -9 23 -120 l0 -115
-29 -5 c-17 -3 -30 -9 -30 -14 -1 -11 203 -15 210 -5 5 8 -21 19 -47 19 -17 0
-19 10 -21 147 -2 87 -7 147 -13 149 -5 1 -34 -6 -63 -15z"/>
<path d="M2956 1545 c-51 -18 -105 -73 -115 -116 -23 -107 54 -189 186 -197
53 -4 71 0 116 22 28 14 61 38 71 53 27 36 32 111 12 151 -43 83 -168 123
-270 87z m162 -50 c44 -50 51 -110 21 -172 -20 -39 -32 -51 -66 -63 -38 -13
-46 -12 -77 3 -44 21 -67 55 -73 111 -11 95 35 156 117 156 42 0 52 -4 78 -35z"/>
</g>
</svg>
